<?xml version="1.0" encoding="utf-8"?>
<!-- Generator: Adobe Illustrator 23.0.2, SVG Export Plug-In . SVG Version: 6.00 Build 0)  -->
<svg version="1.1" id="Capa_1" xmlns="http://www.w3.org/2000/svg" xmlns:xlink="http://www.w3.org/1999/xlink" x="0px" y="0px"
	 viewBox="0 0 595.28 841.89" style="enable-background:new 0 0 595.28 841.89;" xml:space="preserve">
<style type="text/css">
	.st0{fill:#FFFFFF;}
</style>
<g>
	<g>
		<path class="st0" d="M298.36,60.79c-118.09,0-214.13,96.04-214.13,214.13c0,59.27,23.7,114.39,66.77,155.31
			c4.09,3.86,8.24,7.56,12.39,10.91c37.11,35.29,57.91,82.51,58.76,133.26l-8.81,5.57l8.92,11.93v21.71l-10.23,6.42l10.23,13.64v20
			l-10.23,6.42l10.23,13.64v20l-10.23,6.42l10.23,13.64v28.47c0,3.75,1.7,7.27,4.6,9.6l31.82,25.35c2.16,1.7,4.89,2.67,7.67,2.67
			h63.99c2.78,0,5.46-0.91,7.61-2.61l32.16-25.35c2.39-1.88,3.92-4.55,4.49-7.5l9.66-8.3l-9.43-11.82V704.2l9.43-8.13l-9.43-11.82
			v-20.12l9.43-8.13l-9.43-11.82V625.2l10.74-9.26l-10.74-13.41v-26.2c0-0.17,0.06-0.28,0.06-0.45
			c0.51-52.62,22.28-101.32,61.37-137.13c2.05-1.88,4.21-3.75,6.48-5.68c0.17-0.11,0.28-0.23,0.4-0.34
			c44.1-40.46,69.39-97.97,69.39-157.75C512.43,156.83,416.39,60.79,298.36,60.79z M350.24,597.02l-45.8-9.09h45.8V597.02z
			 M246.81,696.98v-16.31l103.43,20.51v16.31L246.81,696.98z M246.81,656.91V640.6l103.43,20.51v16.31L246.81,656.91z
			 M246.81,616.85v-16.59l103.43,20.51v16.59L246.81,616.85z M326.09,755.28h-55.46l-23.87-18.98v-15.57l98.43,19.49L326.09,755.28z
			 M426.67,414.37c-2.44,2.05-4.83,4.15-7.1,6.19c-41.09,37.68-65.3,88.03-68.88,142.81H246.25
			c-3.52-53.53-26.82-103.03-66.37-140.48c-0.23-0.23-0.45-0.45-0.74-0.63c-3.75-3.01-7.56-6.36-11.31-9.94
			c-38.13-36.2-59.16-85.01-59.16-137.47c0-104.51,85.01-189.58,189.58-189.58s189.58,85.01,189.58,189.58
			C487.88,327.71,465.6,378.57,426.67,414.37z"/>
		<path class="st0" d="M367,267.47"/>
		<path class="st0" d="M365.81,270.26"/>
		<path class="st0" d="M361.32,277.25"/>
		<path class="st0" d="M372.35,274.35c-6.82,34.55-37.34,60.64-73.82,60.64c-41.54,0-75.3-33.76-75.3-75.3
			c0-6.76-5.51-12.27-12.27-12.27s-12.27,5.51-12.27,12.27c0,55.07,44.78,99.85,99.85,99.85c49.27,0,90.24-35.92,98.31-82.97
			L372.35,274.35z"/>
	</g>
	<circle class="st0" cx="386.1" cy="211.9" r="55.58"/>
</g>
</svg>
