<svg xmlns="http://www.w3.org/2000/svg" version="1.1" xmlns:xlink="http://www.w3.org/1999/xlink" width="1000" height="1000"><metadata><rdf:RDF xmlns:rdf="http://www.w3.org/1999/02/22-rdf-syntax-ns#" xmlns:dc="http://purl.org/dc/elements/1.1/"><rdf:Description><dc:creator>RealFaviconGenerator</dc:creator><dc:source>https://realfavicongenerator.net</dc:source></rdf:Description></rdf:RDF></metadata><style>
    #light-icon {
      display: inline;
    }
    #dark-icon {
      display: none;
    }

    @media (prefers-color-scheme: dark) {
      #light-icon {
        display: none;
      }
      #dark-icon {
        display: inline;
      }
    }
  </style><g id="light-icon"><svg xmlns="http://www.w3.org/2000/svg" version="1.1" xmlns:xlink="http://www.w3.org/1999/xlink" width="1000" height="1000"><g><g transform="matrix(1.1877895236964011,0,0,1.1877895236964011,146.45444827176624,-5.684341886080802e-14)" style="filter: contrast(1) brightness(0.1)"><svg xmlns="http://www.w3.org/2000/svg" version="1.1" xmlns:xlink="http://www.w3.org/1999/xlink" id="Capa_1" x="0px" y="0px" viewBox="0 0 595.3 841.9" style="enable-background:new 0 0 595.3 841.9;" xml:space="preserve" width="595.3" height="841.9"><style type="text/css">
	.st0{fill:#FFFFFF;}
</style><g>
	<path class="st0" d="M298.5,45C171.8,45,68.7,148,68.7,274.7c0,63.6,25.4,122.7,71.6,166.6c4.4,4.1,8.8,8.1,13.3,11.7
		c39.8,37.9,62.1,88.5,63,143l-9.5,6l9.6,12.8v23.3l-11,6.9l11,14.6v21.5l-11,6.9l11,14.6V724l-11,6.9l11,14.6v30.5
		c0,4,1.8,7.8,4.9,10.3l34.1,27.2c2.3,1.8,5.2,2.9,8.2,2.9h68.7c3,0,5.9-1,8.2-2.8l34.5-27.2c2.6-2,4.2-4.9,4.8-8l10.4-8.9
		l-10.1-12.7v-21.6l10.1-8.7l-10.1-12.7v-21.6l10.1-8.7l-10.1-12.7v-20.4l11.5-9.9l-11.5-14.4v-28.1c0-0.2,0.1-0.3,0.1-0.5
		c0.5-56.5,23.9-108.7,65.8-147.1c2.2-2,4.5-4,7-6.1c0.2-0.1,0.3-0.2,0.4-0.4c47.3-43.4,74.4-105.1,74.4-169.2
		C528.1,148,425.1,45,298.5,45z M328.2,790.1h-59.5l-25.6-20.4V753l105.6,20.9L328.2,790.1z M354.1,749.5l-111-22V710l111,22V749.5z
		 M354.1,706.5l-111-22V667l111,22V706.5z M354.1,663.6l-111-22v-17.8l111,22V663.6z M354.1,620.3l-49.1-9.8h49.1V620.3z
		 M436.1,424.3c-2.6,2.2-5.2,4.5-7.6,6.6c-44.1,40.4-70.1,94.4-73.9,153.2H242.5c-3.8-57.4-28.8-110.5-71.2-150.7
		c-0.2-0.2-0.5-0.5-0.8-0.7c-4-3.2-8.1-6.8-12.1-10.7c-40.9-38.8-63.5-91.2-63.5-147.5c0-112.1,91.2-203.4,203.4-203.4
		s203.4,91.2,203.4,203.4C501.8,331.3,477.9,385.9,436.1,424.3z"></path>
	
		<ellipse transform="matrix(0.7071 -0.7071 0.7071 0.7071 -31.4529 338.2574)" class="st0" cx="392.6" cy="207.1" rx="59.6" ry="59.6"></ellipse>
	<path class="st0" d="M386.6,279c-4.8,0-9,2.6-11.3,6.5l-0.1,0c0,0.1-0.1,0.3-0.1,0.4c-0.6,1-1,2.1-1.3,3.2
		c-12.1,29.4-41,50.1-74.7,50.1c-44.6,0-80.8-36.2-80.8-80.8c0-7.3-5.9-13.2-13.2-13.2s-13.2,5.9-13.2,13.2
		c0,59.1,48,107.1,107.1,107.1c45.6,0,84.6-28.7,100-69.1l0,0c0.5-1.3,0.7-2.7,0.7-4.2C399.8,284.9,393.9,279,386.6,279z"></path>
</g></svg></g></g></svg></g><g id="dark-icon"><svg xmlns="http://www.w3.org/2000/svg" version="1.1" xmlns:xlink="http://www.w3.org/1999/xlink" width="1000" height="1000"><g><g transform="matrix(1.1877895236964011,0,0,1.1877895236964011,146.45444827176624,-5.684341886080802e-14)"><svg xmlns="http://www.w3.org/2000/svg" version="1.1" xmlns:xlink="http://www.w3.org/1999/xlink" id="Capa_1" x="0px" y="0px" viewBox="0 0 595.3 841.9" style="enable-background:new 0 0 595.3 841.9;" xml:space="preserve" width="595.3" height="841.9"><style type="text/css">
	.st0{fill:#FFFFFF;}
</style><g>
	<path class="st0" d="M298.5,45C171.8,45,68.7,148,68.7,274.7c0,63.6,25.4,122.7,71.6,166.6c4.4,4.1,8.8,8.1,13.3,11.7
		c39.8,37.9,62.1,88.5,63,143l-9.5,6l9.6,12.8v23.3l-11,6.9l11,14.6v21.5l-11,6.9l11,14.6V724l-11,6.9l11,14.6v30.5
		c0,4,1.8,7.8,4.9,10.3l34.1,27.2c2.3,1.8,5.2,2.9,8.2,2.9h68.7c3,0,5.9-1,8.2-2.8l34.5-27.2c2.6-2,4.2-4.9,4.8-8l10.4-8.9
		l-10.1-12.7v-21.6l10.1-8.7l-10.1-12.7v-21.6l10.1-8.7l-10.1-12.7v-20.4l11.5-9.9l-11.5-14.4v-28.1c0-0.2,0.1-0.3,0.1-0.5
		c0.5-56.5,23.9-108.7,65.8-147.1c2.2-2,4.5-4,7-6.1c0.2-0.1,0.3-0.2,0.4-0.4c47.3-43.4,74.4-105.1,74.4-169.2
		C528.1,148,425.1,45,298.5,45z M328.2,790.1h-59.5l-25.6-20.4V753l105.6,20.9L328.2,790.1z M354.1,749.5l-111-22V710l111,22V749.5z
		 M354.1,706.5l-111-22V667l111,22V706.5z M354.1,663.6l-111-22v-17.8l111,22V663.6z M354.1,620.3l-49.1-9.8h49.1V620.3z
		 M436.1,424.3c-2.6,2.2-5.2,4.5-7.6,6.6c-44.1,40.4-70.1,94.4-73.9,153.2H242.5c-3.8-57.4-28.8-110.5-71.2-150.7
		c-0.2-0.2-0.5-0.5-0.8-0.7c-4-3.2-8.1-6.8-12.1-10.7c-40.9-38.8-63.5-91.2-63.5-147.5c0-112.1,91.2-203.4,203.4-203.4
		s203.4,91.2,203.4,203.4C501.8,331.3,477.9,385.9,436.1,424.3z"></path>
	
		<ellipse transform="matrix(0.7071 -0.7071 0.7071 0.7071 -31.4529 338.2574)" class="st0" cx="392.6" cy="207.1" rx="59.6" ry="59.6"></ellipse>
	<path class="st0" d="M386.6,279c-4.8,0-9,2.6-11.3,6.5l-0.1,0c0,0.1-0.1,0.3-0.1,0.4c-0.6,1-1,2.1-1.3,3.2
		c-12.1,29.4-41,50.1-74.7,50.1c-44.6,0-80.8-36.2-80.8-80.8c0-7.3-5.9-13.2-13.2-13.2s-13.2,5.9-13.2,13.2
		c0,59.1,48,107.1,107.1,107.1c45.6,0,84.6-28.7,100-69.1l0,0c0.5-1.3,0.7-2.7,0.7-4.2C399.8,284.9,393.9,279,386.6,279z"></path>
</g></svg></g></g></svg></g></svg>